<svg data-v-423bf9ae="" xmlns="http://www.w3.org/2000/svg" viewBox="0 0 108.17790340662097 60" class="font"><!----><!----><defs data-v-423bf9ae=""><linearGradient data-v-423bf9ae="" gradientTransform="rotate(25)" id="801be415-e9f9-4a00-9f0a-bd21058463d0" x1="0%" y1="0%" x2="100%" y2="0%"><stop data-v-423bf9ae="" offset="0%" style="stop-color: rgb(81, 164, 251); stop-opacity: 1;"></stop><stop data-v-423bf9ae="" offset="100%" style="stop-color: rgb(81, 164, 251); stop-opacity: 1;"></stop></linearGradient></defs><g data-v-423bf9ae="" id="d0bbbb69-c483-4c77-ada7-940c40a8ae60" fill="url(#801be415-e9f9-4a00-9f0a-bd21058463d0)" transform="matrix(5.974112510681152,0,0,5.974112510681152,-0.8496547341346741,-21.36741065979004)"><path d="M8.83 3.94L8.83 3.94Q8.90 3.92 8.89 4.04Q8.89 4.17 8.79 4.32L8.79 4.32Q8.69 4.49 8.51 4.82Q8.33 5.14 8.07 5.64Q7.81 6.14 7.46 6.82Q7.12 7.50 6.69 8.39L6.69 8.39Q6.35 9.08 6.00 9.80Q5.65 10.51 5.33 11.18Q5.01 11.85 4.74 12.45Q4.48 13.05 4.30 13.53L4.30 13.53Q4.28 13.58 4.21 13.60Q4.14 13.62 4.10 13.60L4.10 13.60Q4.08 13.58 4.08 13.56Q4.09 13.54 4.09 13.51L4.09 13.51Q4.08 13.47 4.07 13.48Q4.05 13.49 4.02 13.52Q3.98 13.55 3.91 13.58Q3.84 13.62 3.73 13.62L3.73 13.62Q3.59 13.62 3.55 13.58Q3.51 13.53 3.45 13.39L3.45 13.39Q3.43 13.36 3.32 13.02Q3.20 12.67 3.02 12.12Q2.84 11.57 2.60 10.86Q2.36 10.15 2.10 9.38Q1.83 8.60 1.56 7.81Q1.29 7.02 1.03 6.31Q0.77 5.61 0.54 5.03Q0.32 4.46 0.16 4.11L0.16 4.11Q0.12 4.05 0.17 3.96Q0.23 3.88 0.31 3.86L0.31 3.86Q0.36 3.83 0.40 3.87Q0.43 3.90 0.46 3.90L0.46 3.90Q0.49 3.90 0.52 3.87Q0.55 3.85 0.58 3.82Q0.62 3.80 0.64 3.78Q0.67 3.77 0.70 3.77L0.70 3.77Q0.72 3.78 0.75 3.79L0.75 3.79Q0.79 3.80 0.87 3.79L0.87 3.79Q0.90 3.76 0.94 3.74L0.94 3.74L0.99 3.71Q1.07 3.69 1.12 3.70Q1.18 3.71 1.22 3.68L1.22 3.68Q1.26 3.66 1.30 3.64Q1.33 3.62 1.35 3.62Q1.38 3.62 1.42 3.66Q1.46 3.70 1.52 3.81L1.52 3.81Q1.56 3.89 1.67 4.20Q1.78 4.50 1.95 4.97Q2.11 5.43 2.32 6.01Q2.52 6.60 2.74 7.24Q2.96 7.88 3.18 8.53Q3.40 9.18 3.61 9.79Q3.81 10.39 3.98 10.91Q4.15 11.42 4.26 11.78L4.26 11.78Q4.41 11.41 4.65 10.87Q4.89 10.34 5.19 9.71Q5.48 9.08 5.80 8.39Q6.12 7.71 6.43 7.05Q6.75 6.38 7.04 5.78Q7.33 5.18 7.55 4.72Q7.78 4.26 7.92 3.98Q8.07 3.69 8.09 3.66L8.09 3.66Q8.16 3.56 8.19 3.58Q8.23 3.60 8.29 3.62L8.29 3.62Q8.35 3.64 8.35 3.66Q8.36 3.68 8.36 3.69Q8.36 3.71 8.37 3.73Q8.39 3.75 8.46 3.76L8.46 3.76Q8.50 3.76 8.52 3.78Q8.54 3.79 8.57 3.82Q8.59 3.84 8.63 3.87Q8.66 3.89 8.74 3.90L8.74 3.90Q8.76 3.90 8.77 3.91Q8.78 3.92 8.79 3.93Q8.79 3.94 8.80 3.94Q8.80 3.94 8.83 3.94ZM13.85 4.19L13.85 4.19Q13.62 4.19 13.27 4.27Q12.92 4.35 12.52 4.56Q12.13 4.76 11.73 5.10Q11.33 5.44 11.02 5.95Q10.70 6.47 10.50 7.17Q10.29 7.87 10.29 8.80L10.29 8.80Q10.29 9.55 10.45 10.13Q10.60 10.72 10.86 11.16Q11.12 11.59 11.46 11.90Q11.80 12.20 12.17 12.39Q12.54 12.58 12.92 12.66Q13.29 12.74 13.62 12.74L13.62 12.74Q13.70 12.74 13.77 12.74Q13.84 12.74 13.92 12.73L13.92 12.73Q14.06 12.69 14.26 12.62Q14.45 12.55 14.66 12.43Q14.88 12.32 15.08 12.15Q15.29 11.98 15.45 11.73Q15.62 11.49 15.73 11.18Q15.84 10.86 15.85 10.45L15.85 10.45Q15.86 10.08 15.77 9.87Q15.67 9.66 15.57 9.55L15.57 9.55L15.19 9.60Q14.89 9.64 14.57 9.71Q14.26 9.79 13.98 9.86Q13.70 9.94 13.47 9.99Q13.25 10.05 13.12 10.04L13.12 10.04Q13.02 10.04 12.93 10.01L12.93 10.01Q12.84 9.99 12.76 9.94Q12.67 9.90 12.62 9.82L12.62 9.82Q12.58 9.84 12.56 9.84Q12.54 9.84 12.53 9.83L12.53 9.83Q12.51 9.82 12.50 9.80L12.50 9.80Q12.50 9.78 12.49 9.75L12.49 9.75Q12.48 9.69 12.48 9.57L12.48 9.57Q12.44 9.57 12.40 9.54L12.40 9.54Q12.38 9.53 12.37 9.51L12.37 9.51Q12.33 9.45 12.30 9.40Q12.28 9.34 12.31 9.30L12.31 9.30Q12.33 9.28 12.43 9.22Q12.53 9.16 12.78 9.08Q13.02 9.00 13.44 8.89Q13.86 8.78 14.52 8.65L14.52 8.65Q15.37 8.50 15.99 8.44Q16.61 8.39 17.00 8.39L17.00 8.39Q17.22 8.39 17.36 8.40Q17.49 8.41 17.56 8.42L17.56 8.42Q17.72 8.46 17.81 8.52Q17.91 8.59 17.96 8.64L17.96 8.64Q17.99 8.67 18.02 8.71L18.02 8.71Q18.07 8.77 18.14 8.93L18.14 8.93Q18.21 8.96 18.24 9.02L18.24 9.02Q18.25 9.04 18.25 9.06L18.25 9.06Q18.23 9.13 18.21 9.23Q18.19 9.33 18.15 9.33L18.15 9.33Q18.13 9.34 18.01 9.34Q17.89 9.35 17.69 9.37Q17.49 9.38 17.24 9.40Q16.98 9.41 16.69 9.44L16.69 9.44Q16.83 9.60 16.93 9.82Q17.02 10.04 17.06 10.29L17.06 10.29Q17.10 10.63 16.99 11.01Q16.88 11.38 16.64 11.75Q16.41 12.12 16.05 12.46Q15.70 12.80 15.25 13.05Q14.81 13.31 14.29 13.46Q13.77 13.61 13.21 13.61L13.21 13.61Q12.88 13.61 12.52 13.56Q12.16 13.51 11.79 13.40Q11.41 13.28 11.02 13.08Q10.64 12.88 10.25 12.58L10.25 12.58Q9.52 12.01 9.17 11.11Q8.81 10.21 8.83 8.91L8.83 8.91Q8.83 8.35 9.01 7.76Q9.19 7.16 9.52 6.59Q9.85 6.02 10.31 5.51Q10.77 4.99 11.34 4.59Q11.90 4.20 12.55 3.95Q13.21 3.71 13.92 3.68L13.92 3.68Q14.14 3.68 14.44 3.72Q14.74 3.75 15.06 3.83Q15.37 3.91 15.68 4.03Q15.99 4.16 16.25 4.33Q16.50 4.51 16.67 4.75Q16.84 4.98 16.88 5.28L16.88 5.28Q16.93 5.63 16.84 5.91Q16.75 6.19 16.59 6.38Q16.43 6.58 16.24 6.68Q16.06 6.77 15.92 6.77L15.92 6.77Q15.83 6.83 15.76 6.86Q15.69 6.88 15.63 6.89L15.63 6.89Q15.57 6.90 15.53 6.89L15.53 6.89Q15.48 6.87 15.46 6.84L15.46 6.84Q15.43 6.80 15.42 6.76Q15.41 6.71 15.44 6.64L15.44 6.64Q15.29 6.80 15.19 6.88Q15.09 6.95 15.03 6.98L15.03 6.98Q14.96 7.01 14.92 6.99L14.92 6.99Q14.85 6.95 14.89 6.92Q14.93 6.88 15.02 6.82Q15.11 6.75 15.22 6.63Q15.34 6.51 15.43 6.30L15.43 6.30Q15.47 6.16 15.51 5.97Q15.54 5.79 15.54 5.59L15.54 5.59Q15.54 5.22 15.41 4.95Q15.27 4.68 15.04 4.51Q14.81 4.34 14.51 4.27Q14.20 4.19 13.85 4.19Z"></path></g><!----><!----></svg>